<svg id="user" xmlns="http://www.w3.org/2000/svg" width="20.13" height="24" viewBox="0 0 20.13 24">
  <path id="Path_41135" data-name="Path 41135" d="M16.2,8.861v2.159a4.859,4.859,0,0,1-9.717,0V8.861l3.379,1.5a3.644,3.644,0,0,0,2.96,0ZM3.443,7.512v5.331a.911.911,0,1,1-1.822,0V6.7l.034.016Z" transform="translate(-1.293 -1.63)" fill="#e31e24" fill-rule="evenodd"/>
  <path id="Path_41136" data-name="Path 41136" d="M21.161,7.138,12.94,3.492a3.659,3.659,0,0,0-2.966,0L1.754,7.138a.607.607,0,0,0,0,1.11l8.221,3.646a3.659,3.659,0,0,0,2.966,0l8.22-3.646a.607.607,0,0,0,0-1.11Z" transform="translate(-1.392 -3.178)" fill="#e31e24"/>
  <path id="Path_41137" data-name="Path 41137" d="M8.559,14.392l1.934,1.951a1.219,1.219,0,0,0,1.731,0l1.934-1.951a1.156,1.156,0,0,1,1.142-.31c3.415,1,5.8,3.266,5.8,5.9a2.432,2.432,0,0,1-2.435,2.429H4.055A2.432,2.432,0,0,1,1.62,19.98c0-2.632,2.382-4.9,5.8-5.9a1.156,1.156,0,0,1,1.142.31Z" transform="translate(-1.293 1.59)" fill="#e31e24"/>
</svg>
